<svg width="318" height="353" viewBox="0 0 318 353" fill="none" xmlns="http://www.w3.org/2000/svg">
<path d="M76.951 288.061C77.5848 288.443 79.6258 289.731 80.1943 289.923C83.2203 291.591 87.0313 293.726 89.916 295.571C93.4443 297.678 97.4553 299.791 101.079 301.851L119.459 312.358C132.2 319.501 140.487 326.861 155.895 327.216C160.966 327.443 166.31 327.161 171.239 325.883C179.412 323.766 186.602 318.703 193.874 314.503C198.378 311.901 203.766 309.231 208.114 306.498C209.856 305.498 211.607 304.511 213.366 303.538C214.101 305.198 213.454 307.276 213.253 309.128C212.671 314.478 211.716 319.793 211.148 325.146C210.991 326.593 210.585 329.598 210.68 330.941L208.841 331.906L206.278 333.458C203.887 334.853 201.123 336.553 198.695 337.806C197.332 338.588 191.205 342.326 190.172 342.623C183.855 346.653 177.465 350.258 170.009 351.633C156.864 354.056 144.438 352.876 132.726 346.323C127.324 343.353 118.816 338.596 113.733 335.328C112.351 334.781 104.417 330.051 102.434 328.878C95.0868 324.536 87.2593 320.321 80.018 315.871C79.864 311.563 74.617 290.603 75.1575 288.896L75.171 288.768C75.9713 288.578 76.204 288.433 76.951 288.061Z" fill="url(#paint0_linear_3_123)"/>
<path d="M113.733 335.328L114.196 335.158C115.193 335.653 116.426 336.211 117.301 336.858C118.295 334.908 118.556 333.066 119.321 331.048C119.57 330.391 121.235 328.523 121.295 328.271C121.837 325.998 122.005 323.081 124.568 321.988C125.412 321.628 126.796 322.001 127.65 322.488C129.303 323.428 129.909 326.021 131.712 326.828C131.764 326.851 132.923 327.693 133.061 327.793C133.587 330.651 133.991 330.358 135.2 332.661L135.683 332.306L135.782 332.698L135.628 332.801C134.961 333.241 134.696 333.473 134.111 334.013L134.046 334.378C135.2 335.333 136.264 334.176 136.354 336.366C136.466 339.098 135.481 345.246 132.726 346.323C127.324 343.353 118.816 338.596 113.733 335.328Z" fill="#A568E5"/>
<path d="M190.172 342.623C189.119 342.711 186.836 341.636 186.679 340.418C186.393 338.201 187.908 336.483 189.079 334.783C189.461 334.228 188.815 333.096 188.739 332.486C188.961 329.786 190.885 327.216 192.371 325.033C192.849 324.333 193.069 324.418 193.802 324.341C194.893 324.873 196.135 328.766 196.966 329.603C197.619 330.258 200.132 330.813 200.644 332.061C201.718 334.671 197.772 334.048 196.986 336.131C197.135 337.026 197.015 336.698 197.694 337.433C198.12 337.481 198.309 337.616 198.695 337.806C197.332 338.588 191.205 342.326 190.172 342.623Z" fill="#A568E5"/>
<path d="M213.366 303.538C214.101 305.198 213.454 307.276 213.253 309.128C212.671 314.478 211.716 319.793 211.148 325.146C210.991 326.593 210.585 329.598 210.68 330.941L208.841 331.906C207.766 330.141 210.755 319.746 210.625 315.313C210.998 312.586 211.394 309.508 212.176 306.888C212.497 305.816 212.99 304.791 213.366 303.538Z" fill="#B477F2"/>
<path d="M209.89 317.428L210.225 317.268L210.625 315.313C210.755 319.746 207.766 330.141 208.841 331.906L206.278 333.458C205.171 332.078 203.688 329.738 205.041 328.183C206.776 326.191 206.6 326.391 206.977 323.743L207.397 324.231C208.197 322.953 209.889 319.051 209.89 317.428Z" fill="#A568E5"/>
<path d="M76.951 288.061C77.5848 288.443 79.6258 289.731 80.1943 289.923C83.2203 291.591 87.0313 293.726 89.916 295.571C84.463 295.268 84.1863 292.996 80.1643 291.473C78.81 290.728 76.5235 289.311 75.1575 288.896L75.171 288.768C75.9713 288.578 76.204 288.433 76.951 288.061Z" fill="#7638C0"/>
<path d="M208.114 306.498C209.856 305.498 211.607 304.511 213.366 303.538C212.99 304.791 212.497 305.816 212.176 306.888C211.394 309.508 210.998 312.586 210.625 315.313L210.225 317.268L209.89 317.428C209.704 316.546 211.099 309.013 211.27 307.353C209.741 306.466 210.285 307.846 208.114 306.498Z" fill="#8948DF"/>
<path d="M101.529 321.883C102.834 321.731 104.736 322.343 105.163 323.736C104.867 324.588 104.745 324.761 104.239 325.516L104.271 325.911C104.106 325.761 101.708 322.198 101.529 321.883Z" fill="#7638C0"/>
<path d="M18.1763 218.415C18.3955 219.357 18.1885 219.007 19.2815 219.696C12.8495 223.383 6.65135 225.999 3.40305 232.934C0.593971 243.178 6.64995 246.866 14.1815 251.843C21.0785 255.311 32.4153 262.088 38.9505 266.251C38.845 266.861 38.733 267.471 38.6145 268.081C38.395 268.961 38.7113 269.486 39.035 270.361C40.2693 273.978 41.2005 278.791 42.181 282.528C42.7473 284.683 45.7018 293.426 45.4498 295.033L45.0628 295.636C42.1078 294.258 36.201 290.643 33.136 288.856C27.2573 285.428 20.658 281.893 14.9658 278.318C13.3518 277.436 11.7407 276.596 10.2145 275.568C9.68457 275.316 8.31282 274.448 7.74357 274.113C-1.31905 267.741 0.0306965 261.148 0.122272 251.353C-0.00915345 247.881 -0.189479 237.103 0.799996 233.998L0.864671 233.759C2.94587 226.209 11.7943 222.058 18.1763 218.415Z" fill="url(#paint1_linear_3_123)"/>
<path d="M18.1763 218.415C18.3955 219.357 18.1885 219.007 19.2815 219.696C12.8495 223.383 6.65135 225.999 3.40305 232.934C0.593971 243.178 6.64995 246.866 14.1815 251.843L14.189 252.253C15.38 253.338 16.737 253.426 17.0853 254.276C15.5083 258.981 10.4769 257.353 10.2502 264.598C11.1699 265.416 13.085 275.623 14.9658 278.318C13.3518 277.436 11.7407 276.596 10.2145 275.568C9.68457 275.316 8.31282 274.448 7.74357 274.113C-1.31905 267.741 0.0306965 261.148 0.122272 251.353C-0.00915345 247.881 -0.189479 237.103 0.799996 233.998L0.864671 233.759C2.94587 226.209 11.7943 222.058 18.1763 218.415Z" fill="#7638C0"/>
<path d="M0.122272 251.353C0.940747 253.073 2.15942 254.721 2.61125 256.626C3.76422 261.488 8.13705 269.423 7.74357 274.113C-1.31905 267.741 0.0306965 261.148 0.122272 251.353Z" fill="#5218A9"/>
<path d="M18.1763 218.415C18.3955 219.357 18.1885 219.007 19.2815 219.696C12.8495 223.383 6.65135 225.999 3.40305 232.934L2.99212 233.003L2.81312 232.594C5.1055 227.687 10.3607 223.615 15.3125 221.651C14.6955 221.13 14.9988 221.261 14.1508 221.221C11.1967 222.683 4.92427 227.244 3.22452 230.051C2.4695 231.297 1.631 233.39 0.799996 233.998L0.864671 233.759C2.94587 226.209 11.7943 222.058 18.1763 218.415Z" fill="#6A18DD"/>
<path d="M10.2145 275.568C10.7643 275.651 12.4225 275.536 12.4249 274.813C12.4381 270.846 6.59052 260.041 7.2885 256.603C7.5156 257.363 7.96792 257.908 8.1103 258.558C8.42745 260.091 8.3862 261.658 8.87855 263.156C9.1635 264.026 9.41455 264.243 10.2502 264.598C11.1699 265.416 13.085 275.623 14.9658 278.318C13.3518 277.436 11.7407 276.596 10.2145 275.568Z" fill="#8948DF"/>
<path d="M298.847 218.523C316.355 228.47 316.845 229.073 316.567 248.856C316.625 256.978 317.86 264.026 312.852 270.556C311.752 271.718 311.195 272.358 309.895 273.263C308.557 274.371 307.182 275.358 305.577 276.051C299.26 280.088 290.827 284.728 284.202 288.386C282.447 289.621 279.625 291.098 277.687 292.131C276.74 292.713 275.365 293.621 274.415 294.116C274.322 291.928 279.915 271.853 280.915 269.233L281.567 266.253C279.897 266.661 279.075 266.668 277.375 266.738C283.467 262.981 289.66 259.338 295.772 255.613C301.947 251.853 307.337 249.738 312.015 243.953C312.237 243.606 312.45 243.253 312.655 242.896C314.2 240.182 314.71 237.252 313.855 234.221C311.797 226.95 304.517 223.716 298.382 220.273C298.637 219.702 298.33 219.473 298.847 218.523Z" fill="#8948DF"/>
<path d="M281.567 266.253C283.01 265.036 289.227 260.083 290.917 262.206C291.217 263.856 289.177 267.853 288.76 270.363C288 273.358 284.235 285.978 284.202 288.386C282.447 289.621 279.625 291.098 277.687 292.131C276.74 292.713 275.365 293.621 274.415 294.116C274.322 291.928 279.915 271.853 280.915 269.233L281.567 266.253Z" fill="#7638C0"/>
<path d="M280.915 269.233L281.335 269.323C281.64 268.608 281.782 268.123 282 267.386C281.92 274.516 278.017 283.611 277.372 290.941C277.32 291.548 277.397 291.608 277.687 292.131C276.74 292.713 275.365 293.621 274.415 294.116C274.322 291.928 279.915 271.853 280.915 269.233Z" fill="#8948DF"/>
<path d="M288.76 270.363C289.017 271.403 287.852 274.958 287.5 276.286C291.997 272.708 297.535 275.468 302.075 277.191C302.99 277.536 304.885 275.238 305.577 276.051C299.26 280.088 290.827 284.728 284.202 288.386C284.235 285.978 288 273.358 288.76 270.363Z" fill="#A568E5"/>
<path d="M316.31 248.913L316.567 248.856C316.625 256.978 317.86 264.026 312.852 270.556C311.752 271.718 311.195 272.358 309.895 273.263L309.525 272.416C309.852 267.251 310.727 266.303 313.967 263.008C314.8 262.161 315.035 257.816 316.305 255.998L316.31 248.913Z" fill="#7638C0"/>
<path d="M316.31 248.913L316.567 248.856C316.625 256.978 317.86 264.026 312.852 270.556C311.317 267.598 316.565 261.456 316.305 255.998L316.31 248.913Z" fill="#5218A9"/>
<path d="M298.847 218.523C316.355 228.47 316.845 229.073 316.567 248.856L316.31 248.913C316.282 247.123 316.042 245.361 316.01 243.678C315.915 238.77 316.627 236.418 314.56 231.738C313.05 228.317 307.625 223.495 304.305 222.396L304.325 222.777C306.027 223.654 306.91 225.13 308.512 225.838C309.757 226.173 310.137 226.945 310.932 227.853C314.865 232.353 315.945 237.921 313.12 243.291C312.815 243.871 312.595 243.806 312.015 243.953C312.237 243.606 312.45 243.253 312.655 242.896C314.2 240.182 314.71 237.252 313.855 234.221C311.797 226.95 304.517 223.716 298.382 220.273C298.637 219.702 298.33 219.473 298.847 218.523Z" fill="#6A18DD"/>
<path d="M38.6145 268.081C40.1038 268.528 42.654 269.893 43.894 270.836C45.4653 271.468 46.1543 271.761 47.5915 272.626C47.4195 271.716 47.2128 271.538 46.622 270.806C48.203 271.443 52.645 273.863 54.0955 274.778C56.4608 275.693 59.7275 278.606 61.8815 279.351C62.8178 279.936 67.6323 282.951 68.3715 283.226C70.724 284.488 74.9348 286.606 76.951 288.061C76.204 288.433 75.9713 288.578 75.171 288.768L75.1575 288.896C74.617 290.603 79.864 311.563 80.018 315.871C77.0648 314.286 74.171 312.593 71.3425 310.793C69.9455 310.481 54.0445 300.971 51.8715 299.631C49.534 298.508 47.2185 297.081 45.0628 295.636L45.4498 295.033C45.7018 293.426 42.7473 284.683 42.181 282.528C41.2005 278.791 40.2693 273.978 39.035 270.361C38.7113 269.486 38.395 268.961 38.6145 268.081Z" fill="#3E0D8A"/>
<path d="M38.6145 268.081C40.1038 268.528 42.654 269.893 43.894 270.836C45.4653 271.468 46.1543 271.761 47.5915 272.626L47.9445 272.813C44.2588 273.738 49.9178 288.086 49.8448 290.666C49.7835 292.826 52.9948 298.243 51.8715 299.631C49.534 298.508 47.2185 297.081 45.0628 295.636L45.4498 295.033C45.7018 293.426 42.7473 284.683 42.181 282.528C41.2005 278.791 40.2693 273.978 39.035 270.361C38.7113 269.486 38.395 268.961 38.6145 268.081Z" fill="url(#paint2_linear_3_123)"/>
<path d="M38.6145 268.081C40.1038 268.528 42.654 269.893 43.894 270.836C43.8545 270.988 43.8955 271.181 43.912 271.353C44.7795 272.423 45.2255 277.186 45.1995 278.646C45.1905 279.161 43.758 280.278 43.7388 281.638C41.5718 279.233 40.8945 271.918 39.035 270.361C38.7113 269.486 38.395 268.961 38.6145 268.081Z" fill="#6A18DD"/>
<path d="M72.0383 286.906C73.167 287.651 73.977 288.131 75.171 288.768L75.1575 288.896C74.617 290.603 79.864 311.563 80.018 315.871C77.0648 314.286 74.171 312.593 71.3425 310.793C73.5855 310.656 75.0833 313.443 77.0145 313.176C76.5315 310.436 76.7653 309.191 74.787 307.413C73.8028 306.528 74.4958 302.586 74.5 300.936C74.5085 297.421 71.7563 289.786 72.0383 286.906Z" fill="#6A18DD"/>
<path d="M54.0955 274.778C56.4608 275.693 59.7275 278.606 61.8815 279.351L62.053 280.786C59.1245 279.318 55.3773 277.508 52.664 275.726C52.7288 275.241 52.733 275.276 53.0295 274.881L54.0955 274.778Z" fill="#7638C0"/>
<path d="M68.3715 283.226C70.724 284.488 74.9348 286.606 76.951 288.061C76.204 288.433 75.9713 288.578 75.171 288.768C73.977 288.131 73.167 287.651 72.0383 286.906C71.4463 286.606 69.3238 285.116 68.597 284.643L68.3715 283.226Z" fill="#8948DF"/>
<path d="M61.8815 279.351C62.8178 279.936 67.6323 282.951 68.3715 283.226L68.597 284.643C67.1483 284.343 63.122 281.893 62.053 280.786L61.8815 279.351Z" fill="#8948DF"/>
<path d="M46.622 270.806C48.203 271.443 52.645 273.863 54.0955 274.778L53.0295 274.881C52.733 275.276 52.7288 275.241 52.664 275.726L47.9445 272.813L47.5915 272.626C47.4195 271.716 47.2128 271.538 46.622 270.806Z" fill="#8948DF"/>
<path d="M245.857 287.411C246.027 286.866 246.937 286.168 247.41 285.743C247.377 286.488 247.407 286.623 247.6 287.351L247.65 287.536C247.082 291.303 242.742 310.028 243.355 311.961L239.982 313.941C237.875 315.308 235.214 316.708 232.982 317.936C232.469 318.253 231.918 318.611 231.388 318.893C226.486 321.846 220.836 325.173 215.768 327.856C214.07 329.038 212.475 329.923 210.68 330.941C210.585 329.598 210.991 326.593 211.148 325.146C211.716 319.793 212.671 314.478 213.253 309.128C213.454 307.276 214.101 305.198 213.366 303.538C214.274 302.583 225.161 296.483 226.912 295.523C227.828 294.778 230.81 293.168 231.893 292.596C234.347 292.701 234.567 290.931 236.37 290.708L236.508 291.103C235.988 291.391 235.012 291.816 234.778 292.268C235.787 292.013 236.592 291.526 237.349 291.658L237.549 292.136C238.005 290.668 239.587 289.973 240.92 289.171C242.03 288.476 244.435 286.816 245.635 286.866L245.857 287.411Z" fill="#B477F2"/>
<path d="M245.857 287.411C246.027 286.866 246.937 286.168 247.41 285.743C247.377 286.488 247.407 286.623 247.6 287.351L247.65 287.536C247.082 291.303 242.742 310.028 243.355 311.961L239.982 313.941C237.875 315.308 235.214 316.708 232.982 317.936C232.691 316.523 236.786 295.088 237.549 292.136C238.005 290.668 239.587 289.973 240.92 289.171C242.03 288.476 244.435 286.816 245.635 286.866L245.857 287.411Z" fill="#5218A9"/>
<path d="M245.857 287.411C246.027 286.866 246.937 286.168 247.41 285.743C247.377 286.488 247.407 286.623 247.6 287.351L247.65 287.536C247.082 291.303 242.742 310.028 243.355 311.961L239.982 313.941C240.082 310.961 241.99 304.016 242.705 300.906C243.705 296.553 244.715 291.706 245.857 287.411Z" fill="#8948DF"/>
<path d="M213.366 303.538C214.274 302.583 225.161 296.483 226.912 295.523C220.294 303.018 217.13 318.018 215.768 327.856C214.07 329.038 212.475 329.923 210.68 330.941C210.585 329.598 210.991 326.593 211.148 325.146C211.716 319.793 212.671 314.478 213.253 309.128C213.454 307.276 214.101 305.198 213.366 303.538Z" fill="#8948DF"/>
<path d="M234.778 292.268C235.787 292.013 236.592 291.526 237.349 291.658L237.549 292.136C236.786 295.088 232.691 316.523 232.982 317.936C232.469 318.253 231.918 318.611 231.388 318.893C231.828 317.986 232.518 316.898 232.308 316.073C231.168 315.221 231.302 315.036 230.101 314.956L230.087 314.556C230.59 314.428 231.974 315.016 232.708 315.201L232.881 314.968L232.62 314.413C232.38 314.748 232.409 314.768 232.035 314.923L231.559 314.563C231.638 314.143 231.664 314.108 231.624 313.688C231.831 312.501 231.897 309.216 232.26 308.716C232.596 305.131 233.94 295.748 234.778 292.268Z" fill="#A568E5"/>
<path d="M231.624 313.688C231.13 313.583 231.31 313.631 230.87 313.306C230.362 311.581 231.374 307.983 232.048 306.273C231.954 307.226 231.765 307.858 232.26 308.716C231.897 309.216 231.831 312.501 231.624 313.688Z" fill="#A568E5"/>
<path d="M277.375 266.738C279.075 266.668 279.897 266.661 281.567 266.253L280.915 269.233C279.915 271.853 274.322 291.928 274.415 294.116L270.095 296.616C261.227 301.808 252.312 306.923 243.355 311.961C242.742 310.028 247.082 291.303 247.65 287.536C248.007 285.351 249.187 284.311 249.015 282.808C249.61 282.431 250.695 281.878 251.347 281.521C253.93 279.933 256.7 278.421 259.347 276.926C265.34 273.683 271.315 270.016 277.375 266.738Z" fill="#3E0D8A"/>
<path d="M277.375 266.738C279.075 266.668 279.897 266.661 281.567 266.253L280.915 269.233C279.915 271.853 274.322 291.928 274.415 294.116L270.095 296.616C268.032 294.471 275.895 271.931 274.612 270.218C273.022 270.223 263.235 276.246 261.227 277.413C260.547 277.021 260.13 277.028 259.347 276.926C265.34 273.683 271.315 270.016 277.375 266.738Z" fill="#6A18DD"/>
<path d="M251.347 281.521C253.93 279.933 256.7 278.421 259.347 276.926C260.13 277.028 260.547 277.021 261.227 277.413C258.657 278.716 256.385 280.491 253.697 281.581C252.33 282.138 252.477 281.608 251.347 281.521Z" fill="#5218A9"/>
<path d="M9.56147 78.2725C13.9893 75.1385 23.9343 69.8615 29.0375 66.8897L116.49 16.3974C136.044 5.07751 145.987 -2.99912 169.754 1.06763C174.195 1.86853 178.497 3.30638 182.527 5.33671C185.697 6.93233 189.195 9.10028 192.305 10.8908L295.15 70.2697C298.277 72.0835 306.995 76.833 309.407 78.7295C309.297 79.057 309.05 79.74 308.982 80.0437C303.99 76.4407 295.16 71.7645 289.587 68.5072L202.233 18.0737C198.448 15.8837 194.003 13.5688 190.445 11.3136C181.434 5.60261 173.921 1.65241 163.002 1.15871C155.538 0.821283 147.408 1.52688 140.346 4.43881C136.407 6.06296 132.596 8.46901 128.886 10.621L58.4298 51.3182L25.7495 70.1542C22.3673 72.0947 11.6044 78.014 9.17032 80.1382C9.01327 79.4367 9.2948 78.9677 9.56147 78.2725Z" fill="#57546D"/>
<path d="M315.715 101.869C316.58 102.6 316.647 103.145 317.21 104.133C317.227 107.443 317.257 110.769 317.212 114.087C317.195 115.454 317.005 117.166 316.852 118.536C316.852 118.538 317.307 119.504 317.307 119.505C316.49 120.649 313.237 124.813 312.42 125.554C309.092 128.566 304.387 131.004 300.547 133.213L286.802 141.109L239.427 168.535C236.323 170.33 233.208 172.106 230.082 173.862C229.175 174.374 226.458 175.796 225.817 176.335L224.407 176.111L224.202 175.78C225.279 174.783 237.302 168.05 239.562 166.746L286.107 139.871L299.982 131.893C303.215 130.034 309.1 126.974 311.592 124.406C316.2 119.663 316.007 116.44 315.887 110.436L315.715 101.869Z" fill="#706C83"/>
<path d="M1.09792 103.548L1.52317 103.803C1.95967 103.234 1.97197 102.879 2.13552 102.158L2.17705 102.475C2.2556 103.031 2.42617 103.565 2.58405 104.104C2.48737 125.183 3.9967 123.546 21.8318 133.81L41.198 144.983C59.1718 155.333 77.335 166.079 95.4123 176.205L94.3695 176.717L93.1313 176.755C92.787 176.532 92.1438 176.251 91.7483 176.063C90.613 174.78 78.6715 168.152 76.2618 166.781L33.5308 142.052C27.3365 138.496 10.1731 129.522 5.79065 125.137C-0.218653 119.125 1.0405 111.337 1.09792 103.548Z" fill="#57546D"/>
<path d="M310.487 101.524C310.79 101.765 311.105 102.046 311.435 102.236C306.037 106.045 299.007 109.781 293.175 113.131L212.401 159.739C204.663 164.218 196.943 168.719 189.172 173.141C183.786 176.206 178.896 179.348 172.719 180.585C172.113 180.416 171.267 180.297 170.628 180.185C172.09 179.827 175.631 179.015 176.909 178.471C182.701 176.006 188.446 172.434 193.911 169.273L220.811 153.704L297.235 109.642C300.94 107.488 304.832 105.288 308.377 102.874C309.097 102.384 309.61 101.613 310.487 101.524Z" fill="#57546D"/>
<path d="M8.7492 101.913C12.0779 104.774 21.109 109.644 25.3925 112.112L55.5738 129.505L110.446 161.217L127.995 171.263C133.426 174.413 141.461 179.782 147.896 180.267L147.629 181.16C143.87 180.184 139.804 179.052 136.385 177.172C128.364 172.761 120.327 167.985 112.403 163.406L26.9223 114.043C21.4438 110.858 13.0485 106.459 8.15632 102.9C8.2018 102.778 8.65095 102.073 8.7492 101.913Z" fill="#090C1A"/>
<path d="M91.7483 176.063C92.1438 176.251 92.787 176.532 93.1313 176.755C90.733 178.811 79.1168 185.125 75.5885 187.177L52.9893 200.263C48.9845 202.582 44.1785 205.538 40.1155 207.636L39.1373 207.232L38.8318 206.457C51.8665 198.731 65.2035 191.384 78.2695 183.696C82.704 181.086 87.2108 178.487 91.7483 176.063Z" fill="#6A18DD"/>
<path d="M147.378 203.833C160.906 206.055 174.177 205.192 185.81 197.787C187.737 196.56 189.952 195.397 191.947 194.243L211.549 182.922C213.992 181.502 221.626 176.852 223.984 175.869L224.202 175.78L224.407 176.111L223.856 176.813L224.12 176.914C219.842 179.019 215.305 181.736 211.127 184.148L191.873 195.269C187.152 197.98 182.378 200.957 177.354 202.941C168.883 206.284 155.024 206.976 146.274 204.448L147.378 203.833Z" fill="#2C2A43"/>
<path d="M224.12 176.914L223.856 176.813L224.407 176.111L225.817 176.335C226.248 176.558 227.129 176.956 227.43 177.264C230.918 179.3 234.766 181.655 238.285 183.561C242.485 185.99 248.537 189.222 252.445 191.815C253.777 192.461 255.105 193.314 256.375 194.088L255.315 195.324C253.417 194.307 251.54 193.252 249.685 192.16C246.007 189.862 239.15 186.455 236.052 184.073C235.058 184.043 230.219 180.872 229.138 180.132C226.915 179.137 225.902 178.565 224.12 176.914Z" fill="#6A18DD"/>
<path d="M309.407 78.7295C319.255 84.3317 317.25 94.747 317.21 104.133C316.647 103.145 316.58 102.6 315.715 101.869C315.702 100.727 315.937 99.927 314.892 99.3152C313.655 99.4637 312.297 101.258 311.435 102.236C311.105 102.046 310.79 101.765 310.487 101.524C317.32 93.1977 316.672 87.3507 308.982 80.0437C309.05 79.74 309.297 79.057 309.407 78.7295Z" fill="url(#paint3_linear_3_123)"/>
<path d="M9.56147 78.2725C9.2948 78.9677 9.01327 79.4367 9.17032 80.1382C7.38392 82.1307 6.03502 82.9382 4.78637 85.4307C2.2096 90.5745 3.05405 94.393 5.99507 98.9797C5.7961 99.8397 5.79805 99.9935 5.85 100.878C5.16032 100.196 4.1562 99.0275 3.29087 98.7992C2.28635 99.3952 2.61115 102.778 2.58405 104.104C2.42617 103.565 2.2556 103.031 2.17705 102.475L2.13552 102.158C1.97197 102.879 1.95967 103.234 1.52317 103.803L1.09792 103.548C0.979647 100.428 1.16157 97.204 1.05962 94.1135C0.821371 86.8922 3.47395 82.295 9.56147 78.2725Z" fill="url(#paint4_linear_3_123)"/>
<path d="M95.4123 176.205C105.218 182.166 115.319 187.722 125.229 193.509C132.924 198.002 138.583 201.913 147.378 203.833L146.274 204.448C143.69 203.62 139.749 202.852 137.433 201.484C123.354 193.17 108.312 185.157 94.3695 176.717L95.4123 176.205Z" fill="#090C1A"/>
<path d="M275.862 205.361C277.79 206.277 297.797 217.573 298.847 218.523C298.33 219.473 298.637 219.702 298.382 220.273C290.482 215.608 282.357 211.172 274.517 206.454L275.862 205.361Z" fill="#5218A9"/>
<path d="M256.375 194.088C258.16 195.031 259.505 195.759 261.21 196.856C265.367 199.117 271.942 202.793 275.862 205.361L274.517 206.454C269.827 203.879 265.205 200.991 260.49 198.396C258.745 197.406 257.02 196.383 255.315 195.324L256.375 194.088Z" fill="#6A18DD"/>
<path d="M38.8318 206.457L39.1373 207.232L40.1155 207.636C34.8485 210.813 27.9615 214.294 23.0713 217.523L23.3135 215.528C27.4928 212.688 34.2363 209.264 38.8318 206.457Z" fill="#6A18DD"/>
<path d="M249.015 282.808C249.187 284.311 248.007 285.351 247.65 287.536L247.6 287.351C247.407 286.623 247.377 286.488 247.41 285.743C246.937 286.168 246.027 286.866 245.857 287.411L245.635 286.866C244.435 286.816 242.03 288.476 240.92 289.171C239.587 289.973 238.005 290.668 237.549 292.136L237.349 291.658C236.592 291.526 235.787 292.013 234.778 292.268C235.012 291.816 235.988 291.391 236.508 291.103L236.37 290.708C234.567 290.931 234.347 292.701 231.893 292.596C234.276 291.046 236.779 289.688 239.377 288.536C241.402 286.996 246.597 284.181 249.015 282.808Z" fill="#7638C0"/>
<path d="M147.896 180.267C150.267 180.728 158.388 182.099 160.458 181.902C162.456 181.712 168.47 180.317 170.628 180.185C171.267 180.297 172.113 180.416 172.719 180.585C168.217 182.307 159.971 182.613 155.233 182.203C152.963 182.007 150.031 181.387 147.629 181.16L147.896 180.267Z" fill="#D1CBDD" fill-opacity="0.933333"/>
<path d="M38.9505 266.251C40.0998 266.871 46.3485 270.021 46.622 270.806C47.2128 271.538 47.4195 271.716 47.5915 272.626C46.1543 271.761 45.4653 271.468 43.894 270.836C42.654 269.893 40.1038 268.528 38.6145 268.081C38.733 267.471 38.845 266.861 38.9505 266.251Z" fill="#8948DF"/>
<path d="M20.3885 217.072L23.3135 215.528L23.0713 217.523L21.3815 218.49L19.2815 219.696C18.1885 219.007 18.3955 219.357 18.1763 218.415L20.3885 217.072Z" fill="#6A18DD"/>
<path d="M5.99507 98.9797C7.04412 100.345 7.4027 100.879 8.7492 101.913C8.65095 102.073 8.2018 102.778 8.15632 102.9C7.06315 102.398 6.56242 101.777 5.85 100.878C5.79805 99.9935 5.7961 99.8397 5.99507 98.9797Z" fill="#57546D"/>
<defs>
<linearGradient id="paint0_linear_3_123" x1="136.126" y1="274.083" x2="156.877" y2="354.501" gradientUnits="userSpaceOnUse">
<stop stop-color="#4F199F"/>
<stop offset="1" stop-color="#9F62D2"/>
</linearGradient>
<linearGradient id="paint1_linear_3_123" x1="38.81" y1="267.218" x2="19.8108" y2="283.723" gradientUnits="userSpaceOnUse">
<stop stop-color="#7D3FC3"/>
<stop offset="1" stop-color="#A56AEF"/>
</linearGradient>
<linearGradient id="paint2_linear_3_123" x1="49.6115" y1="289.016" x2="44.2573" y2="290.113" gradientUnits="userSpaceOnUse">
<stop stop-color="#530BBE"/>
<stop offset="1" stop-color="#7520E9"/>
</linearGradient>
<linearGradient id="paint3_linear_3_123" x1="316.727" y1="90.7247" x2="309.542" y2="90.6637" gradientUnits="userSpaceOnUse">
<stop stop-color="#7E7A8D"/>
<stop offset="1" stop-color="#6A6372"/>
</linearGradient>
<linearGradient id="paint4_linear_3_123" x1="1.4276" y1="91.849" x2="7.08172" y2="92.2352" gradientUnits="userSpaceOnUse">
<stop stop-color="#837E91"/>
<stop offset="1" stop-color="#727074"/>
</linearGradient>
</defs>
</svg>
